<svg width="88" height="27" viewBox="0 0 88 27" fill="none" xmlns="http://www.w3.org/2000/svg">
<circle cx="8" cy="13.5" r="8" fill="#92C83E"/>
<path d="M32.44 20.14C32.2267 20.14 32.0533 20.0933 31.92 20C31.8 19.8933 31.7267 19.76 31.7 19.6C31.6867 19.4267 31.7267 19.2333 31.82 19.02L37.32 6.5C37.44 6.23333 37.58 6.04667 37.74 5.94C37.9133 5.82 38.1 5.76 38.3 5.76C38.5 5.76 38.68 5.82 38.84 5.94C39.0133 6.04667 39.1533 6.23333 39.26 6.5L44.78 19.02C44.8867 19.2333 44.9267 19.4267 44.9 19.6C44.8867 19.7733 44.82 19.9067 44.7 20C44.58 20.0933 44.4133 20.14 44.2 20.14C43.96 20.14 43.7667 20.08 43.62 19.96C43.4733 19.8267 43.3533 19.64 43.26 19.4L41.78 15.98L42.58 16.4H33.98L34.8 15.98L33.34 19.4C33.22 19.6533 33.0933 19.84 32.96 19.96C32.8267 20.08 32.6533 20.14 32.44 20.14ZM38.28 7.82L35.06 15.4L34.58 15.02H41.98L41.54 15.4L38.32 7.82H38.28ZM47.8903 20.14C47.6236 20.14 47.4236 20.0667 47.2903 19.92C47.157 19.7733 47.0903 19.5667 47.0903 19.3V6.58C47.0903 6.31333 47.157 6.11333 47.2903 5.98C47.4236 5.83333 47.6236 5.76 47.8903 5.76C48.1436 5.76 48.3436 5.83333 48.4903 5.98C48.637 6.11333 48.7103 6.31333 48.7103 6.58V14.6H48.7503L52.8503 10.68C53.037 10.5067 53.197 10.3733 53.3303 10.28C53.477 10.1867 53.6703 10.14 53.9103 10.14C54.1236 10.14 54.2903 10.2 54.4103 10.32C54.5303 10.4267 54.5836 10.5667 54.5703 10.74C54.5703 10.9 54.4903 11.0733 54.3303 11.26L49.9703 15.4V14.52L54.7103 18.98C54.897 19.1667 54.9903 19.3467 54.9903 19.52C54.9903 19.6933 54.9236 19.84 54.7903 19.96C54.6703 20.08 54.5103 20.14 54.3103 20.14C54.0703 20.14 53.877 20.0933 53.7303 20C53.5836 19.8933 53.4036 19.74 53.1903 19.54L48.7503 15.44H48.7103V19.3C48.7103 19.86 48.437 20.14 47.8903 20.14ZM60.7559 20.18C59.9959 20.18 59.3559 20.0467 58.8359 19.78C58.3293 19.5 57.9493 19.1 57.6959 18.58C57.4426 18.0467 57.3159 17.4 57.3159 16.64V11.54H55.9759C55.7493 11.54 55.5759 11.4867 55.4559 11.38C55.3359 11.26 55.2759 11.1 55.2759 10.9C55.2759 10.7 55.3359 10.5467 55.4559 10.44C55.5759 10.3333 55.7493 10.28 55.9759 10.28H57.3159V7.98C57.3159 7.71333 57.3893 7.51333 57.5359 7.38C57.6826 7.23333 57.8826 7.16 58.1359 7.16C58.3893 7.16 58.5826 7.23333 58.7159 7.38C58.8626 7.51333 58.9359 7.71333 58.9359 7.98V10.28H61.4559C61.6826 10.28 61.8559 10.3333 61.9759 10.44C62.0959 10.5467 62.1559 10.7 62.1559 10.9C62.1559 11.1 62.0959 11.26 61.9759 11.38C61.8559 11.4867 61.6826 11.54 61.4559 11.54H58.9359V16.48C58.9359 17.24 59.0959 17.82 59.4159 18.22C59.7359 18.6067 60.2559 18.8 60.9759 18.8C61.2293 18.8 61.4426 18.7733 61.6159 18.72C61.8026 18.6667 61.9559 18.64 62.0759 18.64C62.1959 18.6267 62.2959 18.6667 62.3759 18.76C62.4559 18.8533 62.4959 19.0133 62.4959 19.24C62.4959 19.4 62.4626 19.5467 62.3959 19.68C62.3426 19.8133 62.2426 19.9067 62.0959 19.96C61.9359 20.0133 61.7226 20.06 61.4559 20.1C61.2026 20.1533 60.9693 20.18 60.7559 20.18ZM64.7653 20.1C64.4986 20.1 64.2986 20.0267 64.1653 19.88C64.032 19.72 63.9653 19.5 63.9653 19.22V11.04C63.9653 10.76 64.032 10.5467 64.1653 10.4C64.2986 10.2533 64.4986 10.18 64.7653 10.18C65.0186 10.18 65.2186 10.2533 65.3653 10.4C65.512 10.5467 65.5853 10.76 65.5853 11.04V19.22C65.5853 19.5 65.512 19.72 65.3653 19.88C65.232 20.0267 65.032 20.1 64.7653 20.1ZM64.7653 7.94C64.432 7.94 64.172 7.85333 63.9853 7.68C63.7986 7.49333 63.7053 7.24667 63.7053 6.94C63.7053 6.62 63.7986 6.38 63.9853 6.22C64.172 6.04667 64.432 5.96 64.7653 5.96C65.112 5.96 65.372 6.04667 65.5453 6.22C65.732 6.38 65.8253 6.62 65.8253 6.94C65.8253 7.24667 65.732 7.49333 65.5453 7.68C65.372 7.85333 65.112 7.94 64.7653 7.94ZM72.2337 20.14C72.0071 20.14 71.8071 20.08 71.6338 19.96C71.4604 19.8267 71.3138 19.6267 71.1938 19.36L67.7338 11.28C67.6404 11.08 67.6071 10.8933 67.6338 10.72C67.6604 10.5467 67.7404 10.4067 67.8738 10.3C68.0071 10.1933 68.1938 10.14 68.4338 10.14C68.6471 10.14 68.8138 10.1867 68.9338 10.28C69.0538 10.3733 69.1604 10.54 69.2538 10.78L72.5338 18.8H71.9938L75.3338 10.78C75.4271 10.54 75.5338 10.3733 75.6538 10.28C75.7738 10.1867 75.9471 10.14 76.1738 10.14C76.3871 10.14 76.5471 10.1933 76.6538 10.3C76.7738 10.4067 76.8404 10.5467 76.8538 10.72C76.8804 10.88 76.8538 11.06 76.7738 11.26L73.2738 19.36C73.1804 19.6267 73.0404 19.8267 72.8538 19.96C72.6804 20.08 72.4738 20.14 72.2337 20.14ZM83.15 20.18C82.1233 20.18 81.2367 19.98 80.49 19.58C79.7567 19.1667 79.1833 18.5867 78.77 17.84C78.37 17.0933 78.17 16.2 78.17 15.16C78.17 14.1467 78.37 13.2667 78.77 12.52C79.17 11.76 79.7167 11.1667 80.41 10.74C81.1167 10.3133 81.93 10.1 82.85 10.1C83.5033 10.1 84.09 10.2133 84.61 10.44C85.13 10.6533 85.57 10.9667 85.93 11.38C86.3033 11.7933 86.5833 12.2933 86.77 12.88C86.97 13.4667 87.07 14.1267 87.07 14.86C87.07 15.0733 87.01 15.2333 86.89 15.34C86.77 15.4333 86.5967 15.48 86.37 15.48H79.41V14.42H85.99L85.67 14.68C85.67 13.96 85.5633 13.3533 85.35 12.86C85.1367 12.3533 84.8233 11.9667 84.41 11.7C84.01 11.4333 83.5033 11.3 82.89 11.3C82.21 11.3 81.63 11.46 81.15 11.78C80.6833 12.0867 80.33 12.52 80.09 13.08C79.85 13.6267 79.73 14.2667 79.73 15V15.12C79.73 16.3467 80.0233 17.28 80.61 17.92C81.21 18.56 82.0567 18.88 83.15 18.88C83.6033 18.88 84.05 18.82 84.49 18.7C84.9433 18.58 85.3833 18.38 85.81 18.1C85.9967 17.98 86.1633 17.9267 86.31 17.94C86.47 17.94 86.5967 17.9867 86.69 18.08C86.7833 18.16 86.8433 18.2667 86.87 18.4C86.91 18.52 86.8967 18.6533 86.83 18.8C86.7767 18.9467 86.6633 19.0733 86.49 19.18C86.05 19.5 85.53 19.7467 84.93 19.92C84.33 20.0933 83.7367 20.18 83.15 20.18Z" fill="#92C83E"/>
</svg>
