<svg width="128" height="27" viewBox="0 0 128 27" fill="none" xmlns="http://www.w3.org/2000/svg">
<circle cx="8" cy="13.5" r="8" fill="#686868"/>
<path d="M32.44 20.14C32.2267 20.14 32.0533 20.0933 31.92 20C31.8 19.8933 31.7267 19.76 31.7 19.6C31.6867 19.4267 31.7267 19.2333 31.82 19.02L37.32 6.5C37.44 6.23333 37.58 6.04667 37.74 5.94C37.9133 5.82 38.1 5.76 38.3 5.76C38.5 5.76 38.68 5.82 38.84 5.94C39.0133 6.04667 39.1533 6.23333 39.26 6.5L44.78 19.02C44.8867 19.2333 44.9267 19.4267 44.9 19.6C44.8867 19.7733 44.82 19.9067 44.7 20C44.58 20.0933 44.4133 20.14 44.2 20.14C43.96 20.14 43.7667 20.08 43.62 19.96C43.4733 19.8267 43.3533 19.64 43.26 19.4L41.78 15.98L42.58 16.4H33.98L34.8 15.98L33.34 19.4C33.22 19.6533 33.0933 19.84 32.96 19.96C32.8267 20.08 32.6533 20.14 32.44 20.14ZM38.28 7.82L35.06 15.4L34.58 15.02H41.98L41.54 15.4L38.32 7.82H38.28ZM52.0103 20.18C51.1303 20.18 50.3703 19.9533 49.7303 19.5C49.1036 19.0467 48.6836 18.44 48.4703 17.68L48.6903 17.46V19.3C48.6903 19.5667 48.617 19.7733 48.4703 19.92C48.337 20.0667 48.1436 20.14 47.8903 20.14C47.6236 20.14 47.4236 20.0667 47.2903 19.92C47.157 19.7733 47.0903 19.5667 47.0903 19.3V6.58C47.0903 6.31333 47.157 6.11333 47.2903 5.98C47.4236 5.83333 47.6236 5.76 47.8903 5.76C48.1436 5.76 48.3436 5.83333 48.4903 5.98C48.637 6.11333 48.7103 6.31333 48.7103 6.58V12.54H48.4703C48.697 11.7933 49.1236 11.2 49.7503 10.76C50.377 10.32 51.1303 10.1 52.0103 10.1C52.8903 10.1 53.6503 10.3067 54.2903 10.72C54.9303 11.12 55.4236 11.7 55.7703 12.46C56.1303 13.2067 56.3103 14.1 56.3103 15.14C56.3103 16.1667 56.1303 17.06 55.7703 17.82C55.4236 18.5667 54.9236 19.1467 54.2703 19.56C53.6303 19.9733 52.877 20.18 52.0103 20.18ZM51.6703 18.88C52.2836 18.88 52.8103 18.7333 53.2503 18.44C53.7036 18.1467 54.0503 17.72 54.2903 17.16C54.5436 16.6 54.6703 15.9267 54.6703 15.14C54.6703 13.9267 54.397 13 53.8503 12.36C53.317 11.72 52.5903 11.4 51.6703 11.4C51.0703 11.4 50.5436 11.5467 50.0903 11.84C49.637 12.12 49.2836 12.54 49.0303 13.1C48.7903 13.6467 48.6703 14.3267 48.6703 15.14C48.6703 16.34 48.9436 17.2667 49.4903 17.92C50.037 18.56 50.7636 18.88 51.6703 18.88ZM61.9738 20.14C61.7471 20.14 61.5471 20.08 61.3738 19.96C61.2004 19.84 61.0604 19.6467 60.9538 19.38L57.9738 11.28C57.8938 11.0533 57.8671 10.8533 57.8938 10.68C57.9338 10.5067 58.0204 10.3733 58.1538 10.28C58.2871 10.1867 58.4538 10.14 58.6538 10.14C58.8538 10.14 59.0138 10.1867 59.1338 10.28C59.2671 10.3733 59.3738 10.5467 59.4538 10.8L62.2538 18.8H61.7738L64.6538 10.8C64.7471 10.56 64.8604 10.3933 64.9938 10.3C65.1404 10.1933 65.3271 10.14 65.5538 10.14C65.7671 10.14 65.9471 10.1933 66.0938 10.3C66.2404 10.4067 66.3538 10.5733 66.4338 10.8L69.2538 18.8H68.7938L71.6338 10.76C71.7271 10.52 71.8404 10.36 71.9738 10.28C72.1071 10.1867 72.2671 10.14 72.4538 10.14C72.6671 10.14 72.8271 10.1933 72.9338 10.3C73.0538 10.4067 73.1204 10.5467 73.1338 10.72C73.1471 10.8933 73.1138 11.08 73.0338 11.28L70.0538 19.38C69.9604 19.6333 69.8204 19.8267 69.6338 19.96C69.4604 20.08 69.2604 20.14 69.0338 20.14C68.8071 20.14 68.6071 20.08 68.4338 19.96C68.2604 19.8267 68.1271 19.6333 68.0338 19.38L65.0738 11.26H65.9338L62.9938 19.38C62.9004 19.6333 62.7671 19.8267 62.5938 19.96C62.4204 20.08 62.2138 20.14 61.9738 20.14ZM79.6734 20.18C78.6468 20.18 77.7601 19.98 77.0134 19.58C76.2801 19.1667 75.7068 18.5867 75.2934 17.84C74.8934 17.0933 74.6934 16.2 74.6934 15.16C74.6934 14.1467 74.8934 13.2667 75.2934 12.52C75.6934 11.76 76.2401 11.1667 76.9334 10.74C77.6401 10.3133 78.4534 10.1 79.3734 10.1C80.0268 10.1 80.6134 10.2133 81.1334 10.44C81.6534 10.6533 82.0934 10.9667 82.4534 11.38C82.8268 11.7933 83.1068 12.2933 83.2934 12.88C83.4934 13.4667 83.5934 14.1267 83.5934 14.86C83.5934 15.0733 83.5334 15.2333 83.4134 15.34C83.2934 15.4333 83.1201 15.48 82.8934 15.48H75.9334V14.42H82.5134L82.1934 14.68C82.1934 13.96 82.0868 13.3533 81.8734 12.86C81.6601 12.3533 81.3468 11.9667 80.9334 11.7C80.5334 11.4333 80.0268 11.3 79.4134 11.3C78.7334 11.3 78.1534 11.46 77.6734 11.78C77.2068 12.0867 76.8534 12.52 76.6134 13.08C76.3734 13.6267 76.2534 14.2667 76.2534 15V15.12C76.2534 16.3467 76.5468 17.28 77.1334 17.92C77.7334 18.56 78.5801 18.88 79.6734 18.88C80.1268 18.88 80.5734 18.82 81.0134 18.7C81.4668 18.58 81.9068 18.38 82.3334 18.1C82.5201 17.98 82.6868 17.9267 82.8334 17.94C82.9934 17.94 83.1201 17.9867 83.2134 18.08C83.3068 18.16 83.3668 18.2667 83.3934 18.4C83.4334 18.52 83.4201 18.6533 83.3534 18.8C83.3001 18.9467 83.1868 19.0733 83.0134 19.18C82.5734 19.5 82.0534 19.7467 81.4534 19.92C80.8534 20.0933 80.2601 20.18 79.6734 20.18ZM89.218 20.18C88.618 20.18 88.0113 20.1067 87.398 19.96C86.798 19.8133 86.238 19.56 85.718 19.2C85.5846 19.1067 85.4913 19 85.438 18.88C85.3846 18.7467 85.3646 18.62 85.378 18.5C85.4046 18.3667 85.458 18.2533 85.538 18.16C85.6313 18.0667 85.738 18.0133 85.858 18C85.9913 17.9733 86.138 18 86.298 18.08C86.818 18.4 87.318 18.6267 87.798 18.76C88.2913 18.88 88.778 18.94 89.258 18.94C90.018 18.94 90.5913 18.8 90.978 18.52C91.3646 18.24 91.558 17.86 91.558 17.38C91.558 17.0067 91.4313 16.7133 91.178 16.5C90.9246 16.2733 90.5246 16.1 89.978 15.98L88.158 15.58C87.318 15.4067 86.6913 15.1067 86.278 14.68C85.878 14.2533 85.678 13.7 85.678 13.02C85.678 12.42 85.8313 11.9067 86.138 11.48C86.458 11.04 86.9046 10.7 87.478 10.46C88.0513 10.22 88.718 10.1 89.478 10.1C90.0646 10.1 90.618 10.18 91.138 10.34C91.6713 10.4867 92.1513 10.7267 92.578 11.06C92.7113 11.1533 92.798 11.2667 92.838 11.4C92.8913 11.52 92.898 11.6467 92.858 11.78C92.8313 11.9 92.7713 12.0067 92.678 12.1C92.5846 12.18 92.4713 12.2267 92.338 12.24C92.2046 12.2533 92.0646 12.2133 91.918 12.12C91.518 11.8533 91.1113 11.66 90.698 11.54C90.2846 11.4067 89.878 11.34 89.478 11.34C88.7313 11.34 88.1646 11.4867 87.778 11.78C87.3913 12.0733 87.198 12.46 87.198 12.94C87.198 13.3133 87.318 13.62 87.558 13.86C87.798 14.1 88.1713 14.2733 88.678 14.38L90.498 14.76C91.3646 14.9467 92.0113 15.2467 92.438 15.66C92.878 16.06 93.098 16.6067 93.098 17.3C93.098 18.18 92.7446 18.88 92.038 19.4C91.3313 19.92 90.3913 20.18 89.218 20.18ZM99.9469 20.18C98.9202 20.18 98.0335 19.98 97.2869 19.58C96.5535 19.1667 95.9802 18.5867 95.5669 17.84C95.1669 17.0933 94.9669 16.2 94.9669 15.16C94.9669 14.1467 95.1669 13.2667 95.5669 12.52C95.9669 11.76 96.5135 11.1667 97.2069 10.74C97.9135 10.3133 98.7269 10.1 99.6469 10.1C100.3 10.1 100.887 10.2133 101.407 10.44C101.927 10.6533 102.367 10.9667 102.727 11.38C103.1 11.7933 103.38 12.2933 103.567 12.88C103.767 13.4667 103.867 14.1267 103.867 14.86C103.867 15.0733 103.807 15.2333 103.687 15.34C103.567 15.4333 103.394 15.48 103.167 15.48H96.2069V14.42H102.787L102.467 14.68C102.467 13.96 102.36 13.3533 102.147 12.86C101.934 12.3533 101.62 11.9667 101.207 11.7C100.807 11.4333 100.3 11.3 99.6869 11.3C99.0069 11.3 98.4269 11.46 97.9469 11.78C97.4802 12.0867 97.1269 12.52 96.8869 13.08C96.6469 13.6267 96.5269 14.2667 96.5269 15V15.12C96.5269 16.3467 96.8202 17.28 97.4069 17.92C98.0069 18.56 98.8535 18.88 99.9469 18.88C100.4 18.88 100.847 18.82 101.287 18.7C101.74 18.58 102.18 18.38 102.607 18.1C102.794 17.98 102.96 17.9267 103.107 17.94C103.267 17.94 103.394 17.9867 103.487 18.08C103.58 18.16 103.64 18.2667 103.667 18.4C103.707 18.52 103.694 18.6533 103.627 18.8C103.574 18.9467 103.46 19.0733 103.287 19.18C102.847 19.5 102.327 19.7467 101.727 19.92C101.127 20.0933 100.534 20.18 99.9469 20.18ZM107.011 20.14C106.745 20.14 106.545 20.0667 106.411 19.92C106.278 19.7733 106.211 19.5667 106.211 19.3V10.96C106.211 10.6933 106.278 10.4933 106.411 10.36C106.545 10.2133 106.738 10.14 106.991 10.14C107.245 10.14 107.438 10.2133 107.571 10.36C107.718 10.4933 107.791 10.6933 107.791 10.96V12.68L107.571 12.44C107.851 11.6667 108.305 11.0867 108.931 10.7C109.571 10.3 110.305 10.1 111.131 10.1C111.905 10.1 112.545 10.24 113.051 10.52C113.571 10.8 113.958 11.2267 114.211 11.8C114.465 12.36 114.591 13.0733 114.591 13.94V19.3C114.591 19.5667 114.518 19.7733 114.371 19.92C114.238 20.0667 114.045 20.14 113.791 20.14C113.525 20.14 113.318 20.0667 113.171 19.92C113.038 19.7733 112.971 19.5667 112.971 19.3V14.04C112.971 13.1333 112.791 12.4733 112.431 12.06C112.085 11.6333 111.525 11.42 110.751 11.42C109.858 11.42 109.145 11.7 108.611 12.26C108.091 12.8067 107.831 13.54 107.831 14.46V19.3C107.831 19.86 107.558 20.14 107.011 20.14ZM121.279 20.18C120.412 20.18 119.652 19.9733 118.999 19.56C118.359 19.1467 117.859 18.5667 117.499 17.82C117.152 17.06 116.979 16.1667 116.979 15.14C116.979 14.1 117.152 13.2067 117.499 12.46C117.859 11.7 118.359 11.12 118.999 10.72C119.652 10.3067 120.412 10.1 121.279 10.1C122.159 10.1 122.912 10.32 123.539 10.76C124.165 11.2 124.585 11.7933 124.799 12.54H124.579V6.58C124.579 6.31333 124.645 6.11333 124.779 5.98C124.925 5.83333 125.132 5.76 125.399 5.76C125.652 5.76 125.845 5.83333 125.979 5.98C126.125 6.11333 126.199 6.31333 126.199 6.58V19.3C126.199 19.5667 126.132 19.7733 125.999 19.92C125.865 20.0667 125.665 20.14 125.399 20.14C125.145 20.14 124.945 20.0667 124.799 19.92C124.665 19.7733 124.599 19.5667 124.599 19.3V17.4L124.819 17.68C124.605 18.44 124.179 19.0467 123.539 19.5C122.912 19.9533 122.159 20.18 121.279 20.18ZM121.619 18.88C122.219 18.88 122.745 18.7333 123.199 18.44C123.652 18.1467 123.999 17.72 124.239 17.16C124.492 16.6 124.619 15.9267 124.619 15.14C124.619 13.9267 124.345 13 123.799 12.36C123.265 11.72 122.539 11.4 121.619 11.4C121.005 11.4 120.472 11.5467 120.019 11.84C119.579 12.12 119.232 12.54 118.979 13.1C118.739 13.6467 118.619 14.3267 118.619 15.14C118.619 16.34 118.892 17.2667 119.439 17.92C119.985 18.56 120.712 18.88 121.619 18.88Z" fill="#686868"/>
</svg>
